<svg xmlns="http://www.w3.org/2000/svg" xmlns:xlink="http://www.w3.org/1999/xlink" width="1080" zoomAndPan="magnify" viewBox="0 0 810 809.999993" height="1080" preserveAspectRatio="xMidYMid meet" version="1.0"><defs><clipPath id="fbe5ef46b2"><path d="M 114.351562 0 L 695.648438 0 C 697.519531 0 699.390625 0.046875 701.257812 0.136719 C 703.128906 0.230469 704.992188 0.367188 706.855469 0.550781 C 708.71875 0.734375 710.574219 0.964844 712.425781 1.238281 C 714.277344 1.511719 716.121094 1.832031 717.957031 2.199219 C 719.792969 2.5625 721.617188 2.972656 723.433594 3.425781 C 725.246094 3.882812 727.050781 4.378906 728.84375 4.925781 C 730.632812 5.46875 732.410156 6.054688 734.171875 6.683594 C 735.933594 7.316406 737.679688 7.988281 739.40625 8.703125 C 741.136719 9.421875 742.847656 10.179688 744.539062 10.980469 C 746.230469 11.777344 747.902344 12.621094 749.550781 13.503906 C 751.203125 14.386719 752.832031 15.308594 754.4375 16.269531 C 756.042969 17.230469 757.621094 18.230469 759.179688 19.273438 C 760.734375 20.3125 762.265625 21.390625 763.765625 22.503906 C 765.269531 23.617188 766.746094 24.769531 768.191406 25.957031 C 769.636719 27.144531 771.054688 28.367188 772.441406 29.621094 C 773.828125 30.878906 775.183594 32.167969 776.507812 33.492188 C 777.828125 34.816406 779.121094 36.171875 780.375 37.558594 C 781.632812 38.945312 782.855469 40.363281 784.042969 41.808594 C 785.230469 43.253906 786.382812 44.730469 787.496094 46.234375 C 788.609375 47.734375 789.6875 49.265625 790.726562 50.820312 C 791.769531 52.378906 792.769531 53.957031 793.730469 55.5625 C 794.691406 57.167969 795.613281 58.796875 796.496094 60.449219 C 797.378906 62.097656 798.21875 63.769531 799.019531 65.460938 C 799.820312 67.152344 800.578125 68.863281 801.296875 70.59375 C 802.011719 72.320312 802.683594 74.066406 803.316406 75.828125 C 803.945312 77.589844 804.53125 79.367188 805.074219 81.15625 C 805.621094 82.949219 806.117188 84.753906 806.574219 86.566406 C 807.027344 88.382812 807.4375 90.207031 807.800781 92.042969 C 808.167969 93.878906 808.488281 95.722656 808.761719 97.574219 C 809.035156 99.425781 809.265625 101.28125 809.449219 103.144531 C 809.632812 105.007812 809.769531 106.871094 809.863281 108.742188 C 809.953125 110.609375 810 112.480469 810 114.351562 L 810 695.648438 C 810 697.519531 809.953125 699.390625 809.863281 701.257812 C 809.769531 703.128906 809.632812 704.992188 809.449219 706.855469 C 809.265625 708.71875 809.035156 710.574219 808.761719 712.425781 C 808.488281 714.277344 808.167969 716.121094 807.800781 717.957031 C 807.4375 719.792969 807.027344 721.617188 806.574219 723.433594 C 806.117188 725.246094 805.621094 727.050781 805.074219 728.84375 C 804.53125 730.632812 803.945312 732.410156 803.316406 734.171875 C 802.683594 735.933594 802.011719 737.679688 801.296875 739.40625 C 800.578125 741.136719 799.820312 742.847656 799.019531 744.539062 C 798.21875 746.230469 797.378906 747.902344 796.496094 749.550781 C 795.613281 751.203125 794.691406 752.832031 793.730469 754.4375 C 792.769531 756.042969 791.769531 757.621094 790.726562 759.179688 C 789.6875 760.734375 788.609375 762.265625 787.496094 763.765625 C 786.382812 765.269531 785.230469 766.746094 784.042969 768.191406 C 782.855469 769.636719 781.632812 771.054688 780.375 772.441406 C 779.121094 773.828125 777.828125 775.183594 776.507812 776.507812 C 775.183594 777.832031 773.828125 779.121094 772.441406 780.378906 C 771.054688 781.632812 769.636719 782.855469 768.191406 784.042969 C 766.746094 785.230469 765.269531 786.382812 763.765625 787.496094 C 762.265625 788.609375 760.734375 789.6875 759.179688 790.726562 C 757.621094 791.769531 756.042969 792.769531 754.4375 793.730469 C 752.832031 794.691406 751.203125 795.613281 749.550781 796.496094 C 747.902344 797.378906 746.230469 798.21875 744.539062 799.019531 C 742.847656 799.820312 741.136719 800.578125 739.40625 801.296875 C 737.679688 802.011719 735.933594 802.683594 734.171875 803.316406 C 732.410156 803.945312 730.632812 804.53125 728.84375 805.074219 C 727.050781 805.621094 725.246094 806.117188 723.433594 806.574219 C 721.617188 807.027344 719.792969 807.4375 717.957031 807.800781 C 716.121094 808.167969 714.277344 808.488281 712.425781 808.761719 C 710.574219 809.035156 708.71875 809.265625 706.855469 809.449219 C 704.992188 809.632812 703.128906 809.769531 701.257812 809.863281 C 699.390625 809.953125 697.519531 810 695.648438 810 L 114.351562 810 C 112.480469 810 110.609375 809.953125 108.742188 809.863281 C 106.871094 809.769531 105.007812 809.632812 103.144531 809.449219 C 101.28125 809.265625 99.425781 809.035156 97.574219 808.761719 C 95.722656 808.488281 93.878906 808.167969 92.042969 807.800781 C 90.207031 807.4375 88.382812 807.027344 86.566406 806.574219 C 84.753906 806.117188 82.949219 805.621094 81.15625 805.074219 C 79.367188 804.53125 77.589844 803.945312 75.828125 803.316406 C 74.066406 802.683594 72.320312 802.011719 70.59375 801.296875 C 68.863281 800.578125 67.152344 799.820312 65.460938 799.019531 C 63.769531 798.21875 62.097656 797.378906 60.449219 796.496094 C 58.796875 795.613281 57.167969 794.691406 55.5625 793.730469 C 53.957031 792.769531 52.378906 791.769531 50.820312 790.726562 C 49.265625 789.6875 47.734375 788.609375 46.234375 787.496094 C 44.730469 786.382812 43.253906 785.230469 41.808594 784.042969 C 40.363281 782.855469 38.945312 781.632812 37.558594 780.375 C 36.171875 779.121094 34.816406 777.832031 33.492188 776.507812 C 32.167969 775.183594 30.878906 773.828125 29.621094 772.441406 C 28.367188 771.054688 27.144531 769.636719 25.957031 768.191406 C 24.769531 766.746094 23.617188 765.269531 22.503906 763.765625 C 21.390625 762.265625 20.3125 760.734375 19.273438 759.179688 C 18.230469 757.621094 17.230469 756.042969 16.269531 754.4375 C 15.308594 752.832031 14.386719 751.203125 13.503906 749.550781 C 12.621094 747.902344 11.777344 746.230469 10.980469 744.539062 C 10.179688 742.847656 9.421875 741.136719 8.703125 739.40625 C 7.988281 737.679688 7.316406 735.933594 6.683594 734.171875 C 6.054688 732.410156 5.46875 730.632812 4.925781 728.84375 C 4.378906 727.050781 3.882812 725.246094 3.425781 723.433594 C 2.972656 721.617188 2.5625 719.792969 2.195312 717.957031 C 1.832031 716.121094 1.511719 714.277344 1.238281 712.425781 C 0.964844 710.574219 0.734375 708.71875 0.550781 706.855469 C 0.367188 704.992188 0.230469 703.128906 0.136719 701.257812 C 0.046875 699.390625 0 697.519531 0 695.648438 L 0 114.351562 C 0 112.480469 0.046875 110.609375 0.136719 108.742188 C 0.230469 106.871094 0.367188 105.007812 0.550781 103.144531 C 0.734375 101.28125 0.964844 99.425781 1.238281 97.574219 C 1.511719 95.722656 1.832031 93.878906 2.195312 92.042969 C 2.5625 90.207031 2.972656 88.382812 3.425781 86.566406 C 3.882812 84.753906 4.378906 82.949219 4.925781 81.15625 C 5.46875 79.367188 6.054688 77.589844 6.683594 75.828125 C 7.316406 74.066406 7.988281 72.320312 8.703125 70.59375 C 9.421875 68.863281 10.179688 67.152344 10.980469 65.460938 C 11.777344 63.769531 12.621094 62.097656 13.503906 60.449219 C 14.386719 58.796875 15.308594 57.167969 16.269531 55.5625 C 17.230469 53.957031 18.230469 52.378906 19.273438 50.820312 C 20.3125 49.265625 21.390625 47.734375 22.503906 46.234375 C 23.617188 44.730469 24.769531 43.253906 25.957031 41.808594 C 27.144531 40.363281 28.367188 38.945312 29.621094 37.558594 C 30.878906 36.171875 32.167969 34.816406 33.492188 33.492188 C 34.816406 32.167969 36.171875 30.878906 37.558594 29.621094 C 38.945312 28.367188 40.363281 27.144531 41.808594 25.957031 C 43.253906 24.769531 44.730469 23.617188 46.234375 22.503906 C 47.734375 21.390625 49.265625 20.3125 50.820312 19.273438 C 52.378906 18.230469 53.957031 17.230469 55.5625 16.269531 C 57.167969 15.308594 58.796875 14.386719 60.449219 13.503906 C 62.097656 12.621094 63.769531 11.777344 65.460938 10.980469 C 67.152344 10.179688 68.863281 9.421875 70.59375 8.703125 C 72.320312 7.988281 74.066406 7.316406 75.828125 6.683594 C 77.589844 6.054688 79.367188 5.46875 81.15625 4.925781 C 82.949219 4.378906 84.753906 3.882812 86.566406 3.425781 C 88.382812 2.972656 90.207031 2.5625 92.042969 2.199219 C 93.878906 1.832031 95.722656 1.511719 97.574219 1.238281 C 99.425781 0.964844 101.28125 0.734375 103.144531 0.550781 C 105.007812 0.367188 106.871094 0.230469 108.742188 0.136719 C 110.609375 0.046875 112.480469 0 114.351562 0 Z M 114.351562 0 " clip-rule="nonzero"/></clipPath><linearGradient x1="-0.001" gradientTransform="matrix(9.529411, 0, 0, 9.529411, 0.0000035, 0.00002)" y1="0" x2="-0.001" gradientUnits="userSpaceOnUse" y2="85.000001" id="0e6905c433"><stop stop-opacity="1" stop-color="rgb(0%, 69.799805%, 100%)" offset="0"/><stop stop-opacity="1" stop-color="rgb(0%, 69.688416%, 100%)" offset="0.0078125"/><stop stop-opacity="1" stop-color="rgb(0%, 69.468689%, 100%)" offset="0.015625"/><stop stop-opacity="1" stop-color="rgb(0%, 69.247437%, 100%)" offset="0.0234375"/><stop stop-opacity="1" stop-color="rgb(0%, 69.02771%, 100%)" offset="0.03125"/><stop stop-opacity="1" stop-color="rgb(0%, 68.807983%, 100%)" offset="0.0390625"/><stop stop-opacity="1" stop-color="rgb(0%, 68.586731%, 100%)" offset="0.046875"/><stop stop-opacity="1" stop-color="rgb(0%, 68.367004%, 100%)" offset="0.0546875"/><stop stop-opacity="1" stop-color="rgb(0%, 68.147278%, 100%)" offset="0.0625"/><stop stop-opacity="1" stop-color="rgb(0%, 67.926025%, 100%)" offset="0.0703125"/><stop stop-opacity="1" stop-color="rgb(0%, 67.706299%, 100%)" offset="0.078125"/><stop stop-opacity="1" stop-color="rgb(0%, 67.485046%, 100%)" offset="0.0859375"/><stop stop-opacity="1" stop-color="rgb(0%, 67.26532%, 100%)" offset="0.09375"/><stop stop-opacity="1" stop-color="rgb(0%, 67.045593%, 100%)" offset="0.101562"/><stop stop-opacity="1" stop-color="rgb(0%, 66.824341%, 100%)" offset="0.109375"/><stop stop-opacity="1" stop-color="rgb(0%, 66.604614%, 100%)" offset="0.117188"/><stop stop-opacity="1" stop-color="rgb(0%, 66.384888%, 100%)" offset="0.125"/><stop stop-opacity="1" stop-color="rgb(0%, 66.163635%, 100%)" offset="0.132812"/><stop stop-opacity="1" stop-color="rgb(0%, 65.943909%, 100%)" offset="0.140625"/><stop stop-opacity="1" stop-color="rgb(0%, 65.722656%, 100%)" offset="0.148437"/><stop stop-opacity="1" stop-color="rgb(0%, 65.50293%, 100%)" offset="0.15625"/><stop stop-opacity="1" stop-color="rgb(0%, 65.283203%, 100%)" offset="0.164062"/><stop stop-opacity="1" stop-color="rgb(0%, 65.061951%, 100%)" offset="0.171875"/><stop stop-opacity="1" stop-color="rgb(0%, 64.842224%, 100%)" offset="0.179688"/><stop stop-opacity="1" stop-color="rgb(0%, 64.620972%, 100%)" offset="0.1875"/><stop stop-opacity="1" stop-color="rgb(0%, 64.401245%, 100%)" offset="0.195312"/><stop stop-opacity="1" stop-color="rgb(0%, 64.181519%, 100%)" offset="0.203125"/><stop stop-opacity="1" stop-color="rgb(0%, 63.960266%, 100%)" offset="0.210938"/><stop stop-opacity="1" stop-color="rgb(0%, 63.74054%, 100%)" offset="0.21875"/><stop stop-opacity="1" stop-color="rgb(0%, 63.520813%, 100%)" offset="0.226562"/><stop stop-opacity="1" stop-color="rgb(0%, 63.299561%, 100%)" offset="0.234375"/><stop stop-opacity="1" stop-color="rgb(0%, 63.079834%, 100%)" offset="0.242188"/><stop stop-opacity="1" stop-color="rgb(0%, 62.858582%, 100%)" offset="0.25"/><stop stop-opacity="1" stop-color="rgb(0%, 62.638855%, 100%)" offset="0.257812"/><stop stop-opacity="1" stop-color="rgb(0%, 62.419128%, 100%)" offset="0.265625"/><stop stop-opacity="1" stop-color="rgb(0%, 62.197876%, 100%)" offset="0.273438"/><stop stop-opacity="1" stop-color="rgb(0%, 61.978149%, 100%)" offset="0.28125"/><stop stop-opacity="1" stop-color="rgb(0%, 61.756897%, 100%)" offset="0.289062"/><stop stop-opacity="1" stop-color="rgb(0%, 61.53717%, 100%)" offset="0.296875"/><stop stop-opacity="1" stop-color="rgb(0%, 61.317444%, 100%)" offset="0.304687"/><stop stop-opacity="1" stop-color="rgb(0%, 61.096191%, 100%)" offset="0.3125"/><stop stop-opacity="1" stop-color="rgb(0%, 60.876465%, 100%)" offset="0.320312"/><stop stop-opacity="1" stop-color="rgb(0%, 60.656738%, 100%)" offset="0.328125"/><stop stop-opacity="1" stop-color="rgb(0%, 60.435486%, 100%)" offset="0.335938"/><stop stop-opacity="1" stop-color="rgb(0%, 60.215759%, 100%)" offset="0.34375"/><stop stop-opacity="1" stop-color="rgb(0%, 59.994507%, 100%)" offset="0.351562"/><stop stop-opacity="1" stop-color="rgb(0%, 59.77478%, 100%)" offset="0.359375"/><stop stop-opacity="1" stop-color="rgb(0%, 59.555054%, 100%)" offset="0.367188"/><stop stop-opacity="1" stop-color="rgb(0%, 59.333801%, 100%)" offset="0.375"/><stop stop-opacity="1" stop-color="rgb(0%, 59.114075%, 100%)" offset="0.382812"/><stop stop-opacity="1" stop-color="rgb(0%, 58.894348%, 100%)" offset="0.390625"/><stop stop-opacity="1" stop-color="rgb(0%, 58.673096%, 100%)" offset="0.398437"/><stop stop-opacity="1" stop-color="rgb(0%, 58.453369%, 100%)" offset="0.40625"/><stop stop-opacity="1" stop-color="rgb(0%, 58.232117%, 100%)" offset="0.414062"/><stop stop-opacity="1" stop-color="rgb(0%, 58.01239%, 100%)" offset="0.421875"/><stop stop-opacity="1" stop-color="rgb(0%, 57.792664%, 100%)" offset="0.429688"/><stop stop-opacity="1" stop-color="rgb(0%, 57.571411%, 100%)" offset="0.4375"/><stop stop-opacity="1" stop-color="rgb(0%, 57.351685%, 100%)" offset="0.445312"/><stop stop-opacity="1" stop-color="rgb(0%, 57.130432%, 100%)" offset="0.453125"/><stop stop-opacity="1" stop-color="rgb(0%, 56.910706%, 100%)" offset="0.460938"/><stop stop-opacity="1" stop-color="rgb(0%, 56.690979%, 100%)" offset="0.46875"/><stop stop-opacity="1" stop-color="rgb(0%, 56.469727%, 100%)" offset="0.476563"/><stop stop-opacity="1" stop-color="rgb(0%, 56.25%, 100%)" offset="0.484375"/><stop stop-opacity="1" stop-color="rgb(0%, 56.030273%, 100%)" offset="0.492188"/><stop stop-opacity="1" stop-color="rgb(0%, 55.809021%, 100%)" offset="0.5"/><stop stop-opacity="1" stop-color="rgb(0%, 55.589294%, 100%)" offset="0.507812"/><stop stop-opacity="1" stop-color="rgb(0%, 55.368042%, 100%)" offset="0.515625"/><stop stop-opacity="1" stop-color="rgb(0%, 55.148315%, 100%)" offset="0.523437"/><stop stop-opacity="1" stop-color="rgb(0%, 54.928589%, 100%)" offset="0.53125"/><stop stop-opacity="1" stop-color="rgb(0%, 54.707336%, 100%)" offset="0.539062"/><stop stop-opacity="1" stop-color="rgb(0%, 54.48761%, 100%)" offset="0.546875"/><stop stop-opacity="1" stop-color="rgb(0%, 54.266357%, 100%)" offset="0.554687"/><stop stop-opacity="1" stop-color="rgb(0%, 54.046631%, 100%)" offset="0.5625"/><stop stop-opacity="1" stop-color="rgb(0%, 53.826904%, 100%)" offset="0.570313"/><stop stop-opacity="1" stop-color="rgb(0%, 53.605652%, 100%)" offset="0.578125"/><stop stop-opacity="1" stop-color="rgb(0%, 53.385925%, 100%)" offset="0.585938"/><stop stop-opacity="1" stop-color="rgb(0%, 53.166199%, 100%)" offset="0.59375"/><stop stop-opacity="1" stop-color="rgb(0%, 52.944946%, 100%)" offset="0.601562"/><stop stop-opacity="1" stop-color="rgb(0%, 52.72522%, 100%)" offset="0.609375"/><stop stop-opacity="1" stop-color="rgb(0%, 52.503967%, 100%)" offset="0.617188"/><stop stop-opacity="1" stop-color="rgb(0%, 52.284241%, 100%)" offset="0.625"/><stop stop-opacity="1" stop-color="rgb(0%, 52.064514%, 100%)" offset="0.632812"/><stop stop-opacity="1" stop-color="rgb(0%, 51.843262%, 100%)" offset="0.640625"/><stop stop-opacity="1" stop-color="rgb(0%, 51.623535%, 100%)" offset="0.648438"/><stop stop-opacity="1" stop-color="rgb(0%, 51.403809%, 100%)" offset="0.65625"/><stop stop-opacity="1" stop-color="rgb(0%, 51.182556%, 100%)" offset="0.664062"/><stop stop-opacity="1" stop-color="rgb(0%, 50.96283%, 100%)" offset="0.671875"/><stop stop-opacity="1" stop-color="rgb(0%, 50.741577%, 100%)" offset="0.679688"/><stop stop-opacity="1" stop-color="rgb(0%, 50.521851%, 100%)" offset="0.6875"/><stop stop-opacity="1" stop-color="rgb(0%, 50.302124%, 100%)" offset="0.695312"/><stop stop-opacity="1" stop-color="rgb(0%, 50.080872%, 100%)" offset="0.703125"/><stop stop-opacity="1" stop-color="rgb(0%, 49.861145%, 100%)" offset="0.710938"/><stop stop-opacity="1" stop-color="rgb(0%, 49.639893%, 100%)" offset="0.71875"/><stop stop-opacity="1" stop-color="rgb(0%, 49.420166%, 100%)" offset="0.726562"/><stop stop-opacity="1" stop-color="rgb(0%, 49.200439%, 100%)" offset="0.734375"/><stop stop-opacity="1" stop-color="rgb(0%, 48.979187%, 100%)" offset="0.742187"/><stop stop-opacity="1" stop-color="rgb(0%, 48.75946%, 100%)" offset="0.75"/><stop stop-opacity="1" stop-color="rgb(0%, 48.539734%, 100%)" offset="0.757812"/><stop stop-opacity="1" stop-color="rgb(0%, 48.318481%, 100%)" offset="0.765625"/><stop stop-opacity="1" stop-color="rgb(0%, 48.098755%, 100%)" offset="0.773437"/><stop stop-opacity="1" stop-color="rgb(0%, 47.877502%, 100%)" offset="0.78125"/><stop stop-opacity="1" stop-color="rgb(0%, 47.657776%, 100%)" offset="0.789062"/><stop stop-opacity="1" stop-color="rgb(0%, 47.438049%, 100%)" offset="0.796875"/><stop stop-opacity="1" stop-color="rgb(0%, 47.216797%, 100%)" offset="0.804688"/><stop stop-opacity="1" stop-color="rgb(0%, 46.99707%, 100%)" offset="0.8125"/><stop stop-opacity="1" stop-color="rgb(0%, 46.775818%, 100%)" offset="0.820312"/><stop stop-opacity="1" stop-color="rgb(0%, 46.556091%, 100%)" offset="0.828125"/><stop stop-opacity="1" stop-color="rgb(0%, 46.336365%, 100%)" offset="0.835938"/><stop stop-opacity="1" stop-color="rgb(0%, 46.115112%, 100%)" offset="0.84375"/><stop stop-opacity="1" stop-color="rgb(0%, 45.895386%, 100%)" offset="0.851562"/><stop stop-opacity="1" stop-color="rgb(0%, 45.675659%, 100%)" offset="0.859375"/><stop stop-opacity="1" stop-color="rgb(0%, 45.454407%, 100%)" offset="0.867188"/><stop stop-opacity="1" stop-color="rgb(0%, 45.23468%, 100%)" offset="0.875"/><stop stop-opacity="1" stop-color="rgb(0%, 45.013428%, 100%)" offset="0.882812"/><stop stop-opacity="1" stop-color="rgb(0%, 44.793701%, 100%)" offset="0.890625"/><stop stop-opacity="1" stop-color="rgb(0%, 44.573975%, 100%)" offset="0.898438"/><stop stop-opacity="1" stop-color="rgb(0%, 44.352722%, 100%)" offset="0.90625"/><stop stop-opacity="1" stop-color="rgb(0%, 44.132996%, 100%)" offset="0.914062"/><stop stop-opacity="1" stop-color="rgb(0%, 43.913269%, 100%)" offset="0.921875"/><stop stop-opacity="1" stop-color="rgb(0%, 43.692017%, 100%)" offset="0.929688"/><stop stop-opacity="1" stop-color="rgb(0%, 43.47229%, 100%)" offset="0.9375"/><stop stop-opacity="1" stop-color="rgb(0%, 43.251038%, 100%)" offset="0.945312"/><stop stop-opacity="1" stop-color="rgb(0%, 43.031311%, 100%)" offset="0.953125"/><stop stop-opacity="1" stop-color="rgb(0%, 42.811584%, 100%)" offset="0.960938"/><stop stop-opacity="1" stop-color="rgb(0%, 42.590332%, 100%)" offset="0.96875"/><stop stop-opacity="1" stop-color="rgb(0%, 42.370605%, 100%)" offset="0.976562"/><stop stop-opacity="1" stop-color="rgb(0%, 42.149353%, 100%)" offset="0.984375"/><stop stop-opacity="1" stop-color="rgb(0%, 41.929626%, 100%)" offset="0.992187"/><stop stop-opacity="1" stop-color="rgb(0%, 41.7099%, 100%)" offset="1"/></linearGradient></defs><g clip-path="url(#fbe5ef46b2)"><rect x="-81" fill="url(#0e6905c433)" width="972" y="-80.999999" height="971.999992"/></g><path fill="#ffffff" d="M 436.132812 653.691406 L 337.394531 653.691406 L 337.394531 399.757812 L 276.351562 399.757812 L 276.351562 316 L 337.394531 316 L 337.394531 289.078125 C 337.394531 244.097656 347.738281 210.082031 368.417969 187.039062 C 389.324219 163.992188 422.902344 152.46875 469.15625 152.46875 C 477.609375 152.46875 487.839844 153.023438 499.847656 154.132812 C 512.078125 155.019531 521.972656 156.015625 529.535156 157.125 L 529.535156 239.886719 C 525.976562 239.441406 520.640625 239 513.523438 238.554688 C 506.628906 237.890625 501.292969 237.558594 497.511719 237.558594 C 475.71875 237.558594 460.039062 241.992188 450.476562 250.855469 C 440.914062 259.71875 436.132812 275.007812 436.132812 296.722656 L 436.132812 316 L 527.53125 316 L 516.527344 399.757812 L 436.132812 399.757812 Z M 436.132812 653.691406 " fill-opacity="1" fill-rule="nonzero"/></svg>