<svg xmlns="http://www.w3.org/2000/svg" xmlns:xlink="http://www.w3.org/1999/xlink" width="1080" zoomAndPan="magnify" viewBox="0 0 810 809.999993" height="1080" preserveAspectRatio="xMidYMid meet" version="1.0"><defs><clipPath id="e18067bb87"><path d="M 810 405 C 810 411.628906 809.835938 418.253906 809.511719 424.871094 C 809.1875 431.492188 808.699219 438.101562 808.050781 444.695312 C 807.398438 451.292969 806.589844 457.871094 805.617188 464.425781 C 804.644531 470.980469 803.511719 477.511719 802.21875 484.011719 C 800.925781 490.511719 799.472656 496.976562 797.863281 503.40625 C 796.253906 509.835938 794.484375 516.222656 792.5625 522.566406 C 790.636719 528.90625 788.558594 535.199219 786.324219 541.441406 C 784.09375 547.679688 781.707031 553.863281 779.171875 559.988281 C 776.632812 566.109375 773.949219 572.167969 771.117188 578.160156 C 768.28125 584.152344 765.300781 590.070312 762.179688 595.914062 C 759.054688 601.761719 755.789062 607.527344 752.378906 613.210938 C 748.972656 618.898438 745.425781 624.496094 741.746094 630.007812 C 738.0625 635.515625 734.246094 640.933594 730.300781 646.257812 C 726.351562 651.582031 722.273438 656.804688 718.070312 661.929688 C 713.863281 667.054688 709.535156 672.070312 705.085938 676.980469 C 700.632812 681.890625 696.066406 686.691406 691.378906 691.378906 C 686.691406 696.066406 681.890625 700.632812 676.980469 705.085938 C 672.070312 709.535156 667.054688 713.863281 661.929688 718.070312 C 656.804688 722.273438 651.582031 726.351562 646.257812 730.300781 C 640.933594 734.246094 635.515625 738.0625 630.003906 741.746094 C 624.496094 745.425781 618.898438 748.972656 613.210938 752.378906 C 607.527344 755.789062 601.761719 759.054688 595.914062 762.179688 C 590.070312 765.300781 584.152344 768.28125 578.160156 771.117188 C 572.167969 773.949219 566.109375 776.632812 559.988281 779.171875 C 553.863281 781.707031 547.679688 784.09375 541.441406 786.324219 C 535.199219 788.558594 528.90625 790.636719 522.566406 792.5625 C 516.222656 794.484375 509.835938 796.253906 503.40625 797.863281 C 496.976562 799.472656 490.511719 800.925781 484.011719 802.21875 C 477.511719 803.511719 470.980469 804.644531 464.425781 805.617188 C 457.871094 806.589844 451.292969 807.398438 444.695312 808.050781 C 438.101562 808.699219 431.492188 809.1875 424.871094 809.511719 C 418.253906 809.835938 411.628906 810 405 810 C 398.371094 810 391.746094 809.835938 385.128906 809.511719 C 378.507812 809.1875 371.898438 808.699219 365.304688 808.050781 C 358.707031 807.398438 352.128906 806.589844 345.574219 805.617188 C 339.019531 804.644531 332.488281 803.511719 325.988281 802.21875 C 319.488281 800.925781 313.023438 799.472656 306.59375 797.863281 C 300.164062 796.253906 293.777344 794.484375 287.433594 792.5625 C 281.09375 790.636719 274.800781 788.558594 268.558594 786.324219 C 262.320312 784.09375 256.136719 781.707031 250.011719 779.171875 C 243.890625 776.632812 237.832031 773.949219 231.839844 771.117188 C 225.847656 768.28125 219.929688 765.300781 214.085938 762.179688 C 208.238281 759.054688 202.472656 755.789062 196.789062 752.378906 C 191.101562 748.972656 185.503906 745.425781 179.992188 741.746094 C 174.484375 738.0625 169.066406 734.246094 163.742188 730.300781 C 158.417969 726.351562 153.195312 722.273438 148.070312 718.070312 C 142.945312 713.863281 137.929688 709.535156 133.019531 705.085938 C 128.109375 700.632812 123.308594 696.066406 118.621094 691.378906 C 113.933594 686.691406 109.367188 681.890625 104.914062 676.980469 C 100.464844 672.070312 96.136719 667.054688 91.929688 661.929688 C 87.726562 656.804688 83.648438 651.582031 79.699219 646.257812 C 75.753906 640.933594 71.9375 635.515625 68.253906 630.003906 C 64.574219 624.496094 61.027344 618.898438 57.621094 613.210938 C 54.210938 607.527344 50.945312 601.761719 47.820312 595.914062 C 44.699219 590.070312 41.71875 584.152344 38.882812 578.160156 C 36.050781 572.167969 33.367188 566.109375 30.828125 559.988281 C 28.292969 553.863281 25.90625 547.679688 23.675781 541.441406 C 21.441406 535.199219 19.363281 528.90625 17.4375 522.566406 C 15.515625 516.222656 13.746094 509.835938 12.136719 503.40625 C 10.527344 496.976562 9.074219 490.511719 7.78125 484.011719 C 6.488281 477.511719 5.355469 470.980469 4.382812 464.425781 C 3.410156 457.871094 2.601562 451.292969 1.949219 444.695312 C 1.300781 438.101562 0.8125 431.492188 0.488281 424.871094 C 0.164062 418.253906 0 411.628906 0 405 C 0 398.371094 0.164062 391.746094 0.488281 385.128906 C 0.8125 378.507812 1.300781 371.898438 1.949219 365.304688 C 2.601562 358.707031 3.410156 352.128906 4.382812 345.574219 C 5.355469 339.019531 6.488281 332.488281 7.78125 325.988281 C 9.074219 319.488281 10.527344 313.023438 12.136719 306.59375 C 13.746094 300.164062 15.515625 293.777344 17.4375 287.433594 C 19.363281 281.09375 21.441406 274.800781 23.675781 268.558594 C 25.90625 262.320312 28.292969 256.136719 30.828125 250.011719 C 33.367188 243.890625 36.050781 237.832031 38.882812 231.839844 C 41.71875 225.847656 44.699219 219.929688 47.820312 214.085938 C 50.945312 208.238281 54.210938 202.472656 57.621094 196.789062 C 61.027344 191.101562 64.574219 185.503906 68.253906 179.992188 C 71.9375 174.484375 75.753906 169.066406 79.699219 163.742188 C 83.648438 158.417969 87.726562 153.195312 91.929688 148.070312 C 96.136719 142.945312 100.464844 137.929688 104.914062 133.019531 C 109.367188 128.109375 113.933594 123.308594 118.621094 118.621094 C 123.308594 113.933594 128.109375 109.367188 133.019531 104.914062 C 137.929688 100.464844 142.945312 96.136719 148.070312 91.929688 C 153.195312 87.726562 158.417969 83.648438 163.742188 79.699219 C 169.066406 75.753906 174.484375 71.9375 179.992188 68.253906 C 185.503906 64.574219 191.101562 61.027344 196.789062 57.621094 C 202.472656 54.210938 208.238281 50.945312 214.085938 47.820312 C 219.929688 44.699219 225.847656 41.71875 231.839844 38.882812 C 237.832031 36.050781 243.890625 33.367188 250.011719 30.828125 C 256.136719 28.292969 262.320312 25.90625 268.558594 23.675781 C 274.800781 21.441406 281.09375 19.363281 287.433594 17.4375 C 293.777344 15.515625 300.164062 13.746094 306.59375 12.136719 C 313.023438 10.527344 319.488281 9.074219 325.988281 7.78125 C 332.488281 6.488281 339.019531 5.355469 345.574219 4.382812 C 352.128906 3.410156 358.707031 2.601562 365.304688 1.949219 C 371.898438 1.300781 378.507812 0.8125 385.128906 0.488281 C 391.746094 0.164062 398.371094 0 405 0 C 411.628906 0 418.253906 0.164062 424.871094 0.488281 C 431.492188 0.8125 438.101562 1.300781 444.695312 1.949219 C 451.292969 2.601562 457.871094 3.410156 464.425781 4.382812 C 470.980469 5.355469 477.511719 6.488281 484.011719 7.78125 C 490.511719 9.074219 496.976562 10.527344 503.40625 12.136719 C 509.835938 13.746094 516.222656 15.515625 522.566406 17.4375 C 528.90625 19.363281 535.199219 21.441406 541.441406 23.675781 C 547.679688 25.90625 553.863281 28.292969 559.988281 30.828125 C 566.109375 33.367188 572.167969 36.050781 578.160156 38.882812 C 584.152344 41.71875 590.070312 44.699219 595.914062 47.820312 C 601.761719 50.945312 607.527344 54.210938 613.210938 57.621094 C 618.898438 61.027344 624.496094 64.574219 630.003906 68.253906 C 635.515625 71.9375 640.933594 75.753906 646.257812 79.699219 C 651.582031 83.648438 656.804688 87.726562 661.929688 91.929688 C 667.054688 96.136719 672.070312 100.464844 676.980469 104.914062 C 681.890625 109.367188 686.691406 113.933594 691.378906 118.621094 C 696.066406 123.308594 700.632812 128.109375 705.085938 133.019531 C 709.535156 137.929688 713.863281 142.945312 718.070312 148.070312 C 722.273438 153.195312 726.351562 158.417969 730.300781 163.742188 C 734.246094 169.066406 738.0625 174.484375 741.746094 179.992188 C 745.425781 185.503906 748.972656 191.101562 752.378906 196.789062 C 755.789062 202.472656 759.054688 208.238281 762.179688 214.085938 C 765.300781 219.929688 768.28125 225.847656 771.117188 231.839844 C 773.949219 237.832031 776.632812 243.890625 779.171875 250.011719 C 781.707031 256.136719 784.09375 262.320312 786.324219 268.558594 C 788.558594 274.800781 790.636719 281.09375 792.5625 287.433594 C 794.484375 293.777344 796.253906 300.164062 797.863281 306.59375 C 799.472656 313.023438 800.925781 319.488281 802.21875 325.988281 C 803.511719 332.488281 804.644531 339.019531 805.617188 345.574219 C 806.589844 352.128906 807.398438 358.707031 808.050781 365.304688 C 808.699219 371.898438 809.1875 378.507812 809.511719 385.128906 C 809.835938 391.746094 810 398.371094 810 405 Z M 810 405 " clip-rule="nonzero"/></clipPath><linearGradient x1="0.0499098" gradientTransform="matrix(2.638437, 0, 0, 2.638437, 0.0000035, 0.00002)" y1="307.049884" x2="307.050589" gradientUnits="userSpaceOnUse" y2="0.0506161" id="8afa310da3"><stop stop-opacity="1" stop-color="rgb(99.598694%, 75.299072%, 32.499695%)" offset="0"/><stop stop-opacity="1" stop-color="rgb(99.598694%, 75.299072%, 32.499695%)" offset="0.125"/><stop stop-opacity="1" stop-color="rgb(99.598694%, 75.299072%, 32.499695%)" offset="0.140625"/><stop stop-opacity="1" stop-color="rgb(99.583435%, 75.102234%, 32.473755%)" offset="0.144531"/><stop stop-opacity="1" stop-color="rgb(99.569702%, 74.906921%, 32.447815%)" offset="0.148437"/><stop stop-opacity="1" stop-color="rgb(99.514771%, 74.171448%, 32.351685%)" offset="0.152344"/><stop stop-opacity="1" stop-color="rgb(99.459839%, 73.435974%, 32.255554%)" offset="0.15625"/><stop stop-opacity="1" stop-color="rgb(99.404907%, 72.7005%, 32.159424%)" offset="0.160156"/><stop stop-opacity="1" stop-color="rgb(99.349976%, 71.965027%, 32.063293%)" offset="0.164062"/><stop stop-opacity="1" stop-color="rgb(99.295044%, 71.229553%, 31.967163%)" offset="0.167969"/><stop stop-opacity="1" stop-color="rgb(99.240112%, 70.49408%, 31.872559%)" offset="0.171875"/><stop stop-opacity="1" stop-color="rgb(99.185181%, 69.758606%, 31.776428%)" offset="0.175781"/><stop stop-opacity="1" stop-color="rgb(99.130249%, 69.023132%, 31.680298%)" offset="0.179688"/><stop stop-opacity="1" stop-color="rgb(99.073792%, 68.287659%, 31.584167%)" offset="0.183594"/><stop stop-opacity="1" stop-color="rgb(99.01886%, 67.552185%, 31.488037%)" offset="0.1875"/><stop stop-opacity="1" stop-color="rgb(98.963928%, 66.816711%, 31.391907%)" offset="0.191406"/><stop stop-opacity="1" stop-color="rgb(98.908997%, 66.081238%, 31.295776%)" offset="0.195312"/><stop stop-opacity="1" stop-color="rgb(98.854065%, 65.345764%, 31.199646%)" offset="0.199219"/><stop stop-opacity="1" stop-color="rgb(98.799133%, 64.611816%, 31.103516%)" offset="0.203125"/><stop stop-opacity="1" stop-color="rgb(98.744202%, 63.876343%, 31.007385%)" offset="0.207031"/><stop stop-opacity="1" stop-color="rgb(98.68927%, 63.140869%, 30.911255%)" offset="0.210937"/><stop stop-opacity="1" stop-color="rgb(98.634338%, 62.405396%, 30.815125%)" offset="0.214844"/><stop stop-opacity="1" stop-color="rgb(98.579407%, 61.669922%, 30.718994%)" offset="0.21875"/><stop stop-opacity="1" stop-color="rgb(98.524475%, 60.934448%, 30.622864%)" offset="0.222656"/><stop stop-opacity="1" stop-color="rgb(98.469543%, 60.198975%, 30.528259%)" offset="0.226562"/><stop stop-opacity="1" stop-color="rgb(98.414612%, 59.463501%, 30.432129%)" offset="0.230469"/><stop stop-opacity="1" stop-color="rgb(98.35968%, 58.728027%, 30.335999%)" offset="0.234375"/><stop stop-opacity="1" stop-color="rgb(98.303223%, 57.992554%, 30.239868%)" offset="0.238281"/><stop stop-opacity="1" stop-color="rgb(98.248291%, 57.25708%, 30.143738%)" offset="0.242187"/><stop stop-opacity="1" stop-color="rgb(98.193359%, 56.521606%, 30.047607%)" offset="0.246094"/><stop stop-opacity="1" stop-color="rgb(98.138428%, 55.786133%, 29.951477%)" offset="0.25"/><stop stop-opacity="1" stop-color="rgb(98.083496%, 55.050659%, 29.855347%)" offset="0.253906"/><stop stop-opacity="1" stop-color="rgb(98.028564%, 54.315186%, 29.759216%)" offset="0.257812"/><stop stop-opacity="1" stop-color="rgb(97.973633%, 53.579712%, 29.663086%)" offset="0.261719"/><stop stop-opacity="1" stop-color="rgb(97.918701%, 52.845764%, 29.566956%)" offset="0.265625"/><stop stop-opacity="1" stop-color="rgb(97.86377%, 52.110291%, 29.470825%)" offset="0.269531"/><stop stop-opacity="1" stop-color="rgb(97.808838%, 51.374817%, 29.374695%)" offset="0.273438"/><stop stop-opacity="1" stop-color="rgb(97.753906%, 50.639343%, 29.278564%)" offset="0.277344"/><stop stop-opacity="1" stop-color="rgb(97.698975%, 49.90387%, 29.18396%)" offset="0.28125"/><stop stop-opacity="1" stop-color="rgb(97.644043%, 49.168396%, 29.08783%)" offset="0.285156"/><stop stop-opacity="1" stop-color="rgb(97.589111%, 48.432922%, 28.991699%)" offset="0.289062"/><stop stop-opacity="1" stop-color="rgb(97.532654%, 47.697449%, 28.895569%)" offset="0.292969"/><stop stop-opacity="1" stop-color="rgb(97.477722%, 46.961975%, 28.799438%)" offset="0.296875"/><stop stop-opacity="1" stop-color="rgb(97.422791%, 46.226501%, 28.703308%)" offset="0.300781"/><stop stop-opacity="1" stop-color="rgb(97.367859%, 45.491028%, 28.607178%)" offset="0.304687"/><stop stop-opacity="1" stop-color="rgb(97.312927%, 44.755554%, 28.511047%)" offset="0.308594"/><stop stop-opacity="1" stop-color="rgb(97.257996%, 44.020081%, 28.414917%)" offset="0.3125"/><stop stop-opacity="1" stop-color="rgb(97.203064%, 43.284607%, 28.318787%)" offset="0.316406"/><stop stop-opacity="1" stop-color="rgb(97.148132%, 42.549133%, 28.222656%)" offset="0.320312"/><stop stop-opacity="1" stop-color="rgb(97.093201%, 41.81366%, 28.126526%)" offset="0.324219"/><stop stop-opacity="1" stop-color="rgb(97.038269%, 41.079712%, 28.030396%)" offset="0.328125"/><stop stop-opacity="1" stop-color="rgb(96.983337%, 40.344238%, 27.934265%)" offset="0.332031"/><stop stop-opacity="1" stop-color="rgb(96.928406%, 39.608765%, 27.839661%)" offset="0.335937"/><stop stop-opacity="1" stop-color="rgb(96.873474%, 38.873291%, 27.74353%)" offset="0.339844"/><stop stop-opacity="1" stop-color="rgb(96.818542%, 38.137817%, 27.6474%)" offset="0.34375"/><stop stop-opacity="1" stop-color="rgb(96.763611%, 37.402344%, 27.55127%)" offset="0.347656"/><stop stop-opacity="1" stop-color="rgb(96.708679%, 36.66687%, 27.455139%)" offset="0.351562"/><stop stop-opacity="1" stop-color="rgb(96.652222%, 35.931396%, 27.359009%)" offset="0.355469"/><stop stop-opacity="1" stop-color="rgb(96.59729%, 35.195923%, 27.262878%)" offset="0.359375"/><stop stop-opacity="1" stop-color="rgb(96.542358%, 34.460449%, 27.166748%)" offset="0.363281"/><stop stop-opacity="1" stop-color="rgb(96.487427%, 33.724976%, 27.070618%)" offset="0.367187"/><stop stop-opacity="1" stop-color="rgb(96.432495%, 32.989502%, 26.974487%)" offset="0.371094"/><stop stop-opacity="1" stop-color="rgb(96.377563%, 32.254028%, 26.878357%)" offset="0.375"/><stop stop-opacity="1" stop-color="rgb(96.322632%, 31.518555%, 26.782227%)" offset="0.378906"/><stop stop-opacity="1" stop-color="rgb(96.2677%, 30.783081%, 26.686096%)" offset="0.382812"/><stop stop-opacity="1" stop-color="rgb(96.212769%, 30.047607%, 26.589966%)" offset="0.386719"/><stop stop-opacity="1" stop-color="rgb(96.157837%, 29.312134%, 26.495361%)" offset="0.390625"/><stop stop-opacity="1" stop-color="rgb(96.102905%, 28.57666%, 26.399231%)" offset="0.394531"/><stop stop-opacity="1" stop-color="rgb(96.047974%, 27.842712%, 26.303101%)" offset="0.398437"/><stop stop-opacity="1" stop-color="rgb(95.993042%, 27.107239%, 26.20697%)" offset="0.402344"/><stop stop-opacity="1" stop-color="rgb(95.93811%, 26.371765%, 26.11084%)" offset="0.40625"/><stop stop-opacity="1" stop-color="rgb(95.881653%, 25.636292%, 26.014709%)" offset="0.410156"/><stop stop-opacity="1" stop-color="rgb(95.826721%, 24.900818%, 25.918579%)" offset="0.414062"/><stop stop-opacity="1" stop-color="rgb(95.77179%, 24.165344%, 25.822449%)" offset="0.417969"/><stop stop-opacity="1" stop-color="rgb(95.716858%, 23.429871%, 25.726318%)" offset="0.421875"/><stop stop-opacity="1" stop-color="rgb(95.661926%, 22.694397%, 25.630188%)" offset="0.425781"/><stop stop-opacity="1" stop-color="rgb(95.606995%, 21.958923%, 25.534058%)" offset="0.429687"/><stop stop-opacity="1" stop-color="rgb(95.552063%, 21.22345%, 25.437927%)" offset="0.433594"/><stop stop-opacity="1" stop-color="rgb(95.497131%, 20.487976%, 25.341797%)" offset="0.4375"/><stop stop-opacity="1" stop-color="rgb(95.4422%, 19.752502%, 25.245667%)" offset="0.441406"/><stop stop-opacity="1" stop-color="rgb(95.387268%, 19.017029%, 25.151062%)" offset="0.445312"/><stop stop-opacity="1" stop-color="rgb(95.332336%, 18.281555%, 25.054932%)" offset="0.449219"/><stop stop-opacity="1" stop-color="rgb(95.277405%, 17.546082%, 24.958801%)" offset="0.453125"/><stop stop-opacity="1" stop-color="rgb(95.222473%, 16.810608%, 24.862671%)" offset="0.457031"/><stop stop-opacity="1" stop-color="rgb(95.167542%, 16.07666%, 24.766541%)" offset="0.460937"/><stop stop-opacity="1" stop-color="rgb(95.111084%, 15.341187%, 24.67041%)" offset="0.464844"/><stop stop-opacity="1" stop-color="rgb(95.056152%, 14.605713%, 24.57428%)" offset="0.46875"/><stop stop-opacity="1" stop-color="rgb(95.001221%, 13.870239%, 24.478149%)" offset="0.472656"/><stop stop-opacity="1" stop-color="rgb(94.946289%, 13.134766%, 24.382019%)" offset="0.476562"/><stop stop-opacity="1" stop-color="rgb(94.621277%, 12.812805%, 24.882507%)" offset="0.480469"/><stop stop-opacity="1" stop-color="rgb(94.297791%, 12.490845%, 25.382996%)" offset="0.484375"/><stop stop-opacity="1" stop-color="rgb(93.766785%, 12.483215%, 26.33667%)" offset="0.488281"/><stop stop-opacity="1" stop-color="rgb(93.237305%, 12.477112%, 27.29187%)" offset="0.492187"/><stop stop-opacity="1" stop-color="rgb(92.707825%, 12.469482%, 28.245544%)" offset="0.496094"/><stop stop-opacity="1" stop-color="rgb(92.178345%, 12.463379%, 29.199219%)" offset="0.5"/><stop stop-opacity="1" stop-color="rgb(91.648865%, 12.45575%, 30.152893%)" offset="0.503906"/><stop stop-opacity="1" stop-color="rgb(91.119385%, 12.449646%, 31.108093%)" offset="0.507812"/><stop stop-opacity="1" stop-color="rgb(90.588379%, 12.442017%, 32.061768%)" offset="0.511719"/><stop stop-opacity="1" stop-color="rgb(90.058899%, 12.435913%, 33.015442%)" offset="0.515625"/><stop stop-opacity="1" stop-color="rgb(89.529419%, 12.428284%, 33.969116%)" offset="0.519531"/><stop stop-opacity="1" stop-color="rgb(88.999939%, 12.42218%, 34.924316%)" offset="0.523437"/><stop stop-opacity="1" stop-color="rgb(88.468933%, 12.414551%, 35.877991%)" offset="0.527344"/><stop stop-opacity="1" stop-color="rgb(87.939453%, 12.408447%, 36.831665%)" offset="0.53125"/><stop stop-opacity="1" stop-color="rgb(87.409973%, 12.400818%, 37.785339%)" offset="0.535156"/><stop stop-opacity="1" stop-color="rgb(86.880493%, 12.394714%, 38.74054%)" offset="0.539062"/><stop stop-opacity="1" stop-color="rgb(86.351013%, 12.387085%, 39.694214%)" offset="0.542969"/><stop stop-opacity="1" stop-color="rgb(85.821533%, 12.380981%, 40.647888%)" offset="0.546875"/><stop stop-opacity="1" stop-color="rgb(85.290527%, 12.373352%, 41.601562%)" offset="0.550781"/><stop stop-opacity="1" stop-color="rgb(84.761047%, 12.367249%, 42.556763%)" offset="0.554687"/><stop stop-opacity="1" stop-color="rgb(84.231567%, 12.359619%, 43.510437%)" offset="0.558594"/><stop stop-opacity="1" stop-color="rgb(83.702087%, 12.353516%, 44.464111%)" offset="0.5625"/><stop stop-opacity="1" stop-color="rgb(83.171082%, 12.345886%, 45.417786%)" offset="0.566406"/><stop stop-opacity="1" stop-color="rgb(82.641602%, 12.339783%, 46.372986%)" offset="0.570312"/><stop stop-opacity="1" stop-color="rgb(82.112122%, 12.332153%, 47.32666%)" offset="0.574219"/><stop stop-opacity="1" stop-color="rgb(81.582642%, 12.32605%, 48.280334%)" offset="0.578125"/><stop stop-opacity="1" stop-color="rgb(81.053162%, 12.31842%, 49.234009%)" offset="0.582031"/><stop stop-opacity="1" stop-color="rgb(80.523682%, 12.312317%, 50.189209%)" offset="0.585937"/><stop stop-opacity="1" stop-color="rgb(79.992676%, 12.304688%, 51.142883%)" offset="0.589844"/><stop stop-opacity="1" stop-color="rgb(79.463196%, 12.298584%, 52.096558%)" offset="0.59375"/><stop stop-opacity="1" stop-color="rgb(78.933716%, 12.290955%, 53.050232%)" offset="0.597656"/><stop stop-opacity="1" stop-color="rgb(78.404236%, 12.284851%, 54.005432%)" offset="0.601562"/><stop stop-opacity="1" stop-color="rgb(77.874756%, 12.277222%, 54.959106%)" offset="0.605469"/><stop stop-opacity="1" stop-color="rgb(77.345276%, 12.271118%, 55.912781%)" offset="0.609375"/><stop stop-opacity="1" stop-color="rgb(76.81427%, 12.263489%, 56.866455%)" offset="0.613281"/><stop stop-opacity="1" stop-color="rgb(76.28479%, 12.257385%, 57.821655%)" offset="0.617187"/><stop stop-opacity="1" stop-color="rgb(75.75531%, 12.249756%, 58.77533%)" offset="0.621094"/><stop stop-opacity="1" stop-color="rgb(75.22583%, 12.243652%, 59.729004%)" offset="0.625"/><stop stop-opacity="1" stop-color="rgb(74.694824%, 12.236023%, 60.682678%)" offset="0.628906"/><stop stop-opacity="1" stop-color="rgb(74.165344%, 12.229919%, 61.637878%)" offset="0.632812"/><stop stop-opacity="1" stop-color="rgb(73.635864%, 12.22229%, 62.591553%)" offset="0.636719"/><stop stop-opacity="1" stop-color="rgb(73.106384%, 12.216187%, 63.545227%)" offset="0.640625"/><stop stop-opacity="1" stop-color="rgb(72.576904%, 12.208557%, 64.498901%)" offset="0.644531"/><stop stop-opacity="1" stop-color="rgb(72.047424%, 12.202454%, 65.454102%)" offset="0.648437"/><stop stop-opacity="1" stop-color="rgb(71.342468%, 12.489319%, 65.942383%)" offset="0.652344"/><stop stop-opacity="1" stop-color="rgb(70.639038%, 12.77771%, 66.430664%)" offset="0.65625"/><stop stop-opacity="1" stop-color="rgb(69.882202%, 13.154602%, 66.777039%)" offset="0.660156"/><stop stop-opacity="1" stop-color="rgb(69.125366%, 13.53302%, 67.123413%)" offset="0.664062"/><stop stop-opacity="1" stop-color="rgb(68.36853%, 13.909912%, 67.469788%)" offset="0.667969"/><stop stop-opacity="1" stop-color="rgb(67.611694%, 14.28833%, 67.817688%)" offset="0.671875"/><stop stop-opacity="1" stop-color="rgb(66.854858%, 14.665222%, 68.164062%)" offset="0.675781"/><stop stop-opacity="1" stop-color="rgb(66.098022%, 15.042114%, 68.510437%)" offset="0.679687"/><stop stop-opacity="1" stop-color="rgb(65.341187%, 15.419006%, 68.856812%)" offset="0.683594"/><stop stop-opacity="1" stop-color="rgb(64.584351%, 15.797424%, 69.203186%)" offset="0.6875"/><stop stop-opacity="1" stop-color="rgb(63.827515%, 16.174316%, 69.549561%)" offset="0.691406"/><stop stop-opacity="1" stop-color="rgb(63.070679%, 16.552734%, 69.897461%)" offset="0.695312"/><stop stop-opacity="1" stop-color="rgb(62.313843%, 16.929626%, 70.243835%)" offset="0.699219"/><stop stop-opacity="1" stop-color="rgb(61.557007%, 17.308044%, 70.59021%)" offset="0.703125"/><stop stop-opacity="1" stop-color="rgb(60.800171%, 17.684937%, 70.936584%)" offset="0.707031"/><stop stop-opacity="1" stop-color="rgb(60.043335%, 18.061829%, 71.282959%)" offset="0.710937"/><stop stop-opacity="1" stop-color="rgb(59.286499%, 18.438721%, 71.629333%)" offset="0.714844"/><stop stop-opacity="1" stop-color="rgb(58.529663%, 18.817139%, 71.977234%)" offset="0.71875"/><stop stop-opacity="1" stop-color="rgb(57.772827%, 19.194031%, 72.323608%)" offset="0.722656"/><stop stop-opacity="1" stop-color="rgb(57.015991%, 19.572449%, 72.669983%)" offset="0.726562"/><stop stop-opacity="1" stop-color="rgb(56.259155%, 19.949341%, 73.016357%)" offset="0.730469"/><stop stop-opacity="1" stop-color="rgb(55.502319%, 20.326233%, 73.362732%)" offset="0.734375"/><stop stop-opacity="1" stop-color="rgb(54.745483%, 20.703125%, 73.709106%)" offset="0.738281"/><stop stop-opacity="1" stop-color="rgb(53.988647%, 21.081543%, 74.057007%)" offset="0.742187"/><stop stop-opacity="1" stop-color="rgb(53.231812%, 21.458435%, 74.403381%)" offset="0.746094"/><stop stop-opacity="1" stop-color="rgb(52.474976%, 21.836853%, 74.749756%)" offset="0.75"/><stop stop-opacity="1" stop-color="rgb(51.71814%, 22.213745%, 75.09613%)" offset="0.753906"/><stop stop-opacity="1" stop-color="rgb(50.961304%, 22.592163%, 75.444031%)" offset="0.757812"/><stop stop-opacity="1" stop-color="rgb(50.204468%, 22.969055%, 75.790405%)" offset="0.761719"/><stop stop-opacity="1" stop-color="rgb(49.447632%, 23.345947%, 76.13678%)" offset="0.765625"/><stop stop-opacity="1" stop-color="rgb(48.690796%, 23.722839%, 76.483154%)" offset="0.769531"/><stop stop-opacity="1" stop-color="rgb(47.93396%, 24.101257%, 76.829529%)" offset="0.773438"/><stop stop-opacity="1" stop-color="rgb(47.177124%, 24.478149%, 77.175903%)" offset="0.777344"/><stop stop-opacity="1" stop-color="rgb(46.420288%, 24.856567%, 77.523804%)" offset="0.78125"/><stop stop-opacity="1" stop-color="rgb(45.663452%, 25.233459%, 77.870178%)" offset="0.785156"/><stop stop-opacity="1" stop-color="rgb(44.906616%, 25.611877%, 78.216553%)" offset="0.789062"/><stop stop-opacity="1" stop-color="rgb(44.14978%, 25.98877%, 78.562927%)" offset="0.792969"/><stop stop-opacity="1" stop-color="rgb(43.392944%, 26.365662%, 78.909302%)" offset="0.796875"/><stop stop-opacity="1" stop-color="rgb(42.636108%, 26.742554%, 79.255676%)" offset="0.800781"/><stop stop-opacity="1" stop-color="rgb(41.879272%, 27.120972%, 79.603577%)" offset="0.804687"/><stop stop-opacity="1" stop-color="rgb(41.122437%, 27.497864%, 79.949951%)" offset="0.808594"/><stop stop-opacity="1" stop-color="rgb(40.365601%, 27.876282%, 80.296326%)" offset="0.8125"/><stop stop-opacity="1" stop-color="rgb(39.608765%, 28.253174%, 80.6427%)" offset="0.816406"/><stop stop-opacity="1" stop-color="rgb(38.851929%, 28.631592%, 80.989075%)" offset="0.820312"/><stop stop-opacity="1" stop-color="rgb(38.095093%, 29.008484%, 81.335449%)" offset="0.824219"/><stop stop-opacity="1" stop-color="rgb(37.338257%, 29.385376%, 81.68335%)" offset="0.828125"/><stop stop-opacity="1" stop-color="rgb(36.581421%, 29.762268%, 82.029724%)" offset="0.832031"/><stop stop-opacity="1" stop-color="rgb(35.824585%, 30.140686%, 82.376099%)" offset="0.835938"/><stop stop-opacity="1" stop-color="rgb(35.067749%, 30.517578%, 82.722473%)" offset="0.839844"/><stop stop-opacity="1" stop-color="rgb(34.310913%, 30.895996%, 83.068848%)" offset="0.84375"/><stop stop-opacity="1" stop-color="rgb(33.554077%, 31.272888%, 83.415222%)" offset="0.847656"/><stop stop-opacity="1" stop-color="rgb(32.797241%, 31.651306%, 83.763123%)" offset="0.851562"/><stop stop-opacity="1" stop-color="rgb(32.647705%, 31.724548%, 83.830261%)" offset="0.859375"/><stop stop-opacity="1" stop-color="rgb(32.499695%, 31.799316%, 83.898926%)" offset="0.875"/><stop stop-opacity="1" stop-color="rgb(32.499695%, 31.799316%, 83.898926%)" offset="1"/></linearGradient></defs><g clip-path="url(#e18067bb87)"><rect x="-81" fill="url(#8afa310da3)" width="972" y="-80.999999" height="971.999992"/></g><path fill="#ffffff" d="M 513.664062 649.417969 L 297.75 649.417969 C 222.894531 649.417969 161.996094 588.523438 161.996094 513.664062 L 161.996094 297.75 C 161.996094 222.894531 222.894531 161.996094 297.75 161.996094 L 513.664062 161.996094 C 588.523438 161.996094 649.417969 222.894531 649.417969 297.75 L 649.417969 513.664062 C 649.417969 588.523438 588.523438 649.417969 513.664062 649.417969 Z M 297.75 194.992188 C 241.09375 194.992188 194.992188 241.09375 194.992188 297.75 L 194.992188 513.664062 C 194.992188 570.320312 241.09375 616.421875 297.75 616.421875 L 513.664062 616.421875 C 570.320312 616.421875 616.421875 570.320312 616.421875 513.664062 L 616.421875 297.75 C 616.421875 241.09375 570.320312 194.992188 513.664062 194.992188 Z M 297.75 194.992188 " fill-opacity="1" fill-rule="nonzero"/><path fill="#ffffff" d="M 405.714844 526.4375 C 339.148438 526.4375 284.992188 472.28125 284.992188 405.714844 C 284.992188 339.148438 339.148438 284.992188 405.714844 284.992188 C 472.28125 284.992188 526.4375 339.148438 526.4375 405.714844 C 526.4375 472.28125 472.28125 526.4375 405.714844 526.4375 Z M 405.714844 317.980469 C 357.34375 317.980469 317.988281 357.332031 317.988281 405.707031 C 317.988281 454.082031 357.351562 493.433594 405.714844 493.433594 C 454.082031 493.433594 493.441406 454.082031 493.441406 405.707031 C 493.441406 357.332031 454.089844 317.980469 405.714844 317.980469 Z M 405.714844 317.980469 " fill-opacity="1" fill-rule="nonzero"/></svg>