<svg xmlns="http://www.w3.org/2000/svg" xmlns:xlink="http://www.w3.org/1999/xlink" width="1080" zoomAndPan="magnify" viewBox="0 0 810 809.999993" height="1080" preserveAspectRatio="xMidYMid meet" version="1.0"><path fill="#d2252d" d="M 810 686.898438 C 810 754.921875 754.851562 809.929688 686.96875 809.929688 L 123.03125 809.929688 C 55.007812 809.929688 0 754.78125 0 686.898438 L 0 123.101562 C 0 55.21875 55.007812 0.0703125 123.03125 0.0703125 L 686.828125 0.0703125 C 754.851562 0.0703125 809.859375 55.21875 809.859375 123.101562 Z M 810 686.898438 " fill-opacity="1" fill-rule="nonzero"/><path fill="#ffffff" d="M 395.832031 149.976562 C 249.703125 149.976562 131.429688 268.390625 131.429688 414.378906 C 131.429688 522.714844 196.65625 615.652344 289.734375 656.664062 C 289.035156 638.1875 289.59375 616.074219 294.355469 596.058594 C 299.535156 574.503906 328.367188 451.890625 328.367188 451.890625 C 328.367188 451.890625 319.828125 435.09375 319.828125 410.039062 C 319.828125 370.847656 342.644531 341.59375 370.777344 341.59375 C 394.710938 341.59375 406.46875 359.648438 406.46875 381.207031 C 406.46875 405.421875 390.933594 441.53125 383.09375 474.984375 C 376.375 502.976562 397.089844 525.933594 424.804688 525.933594 C 474.914062 525.933594 508.648438 461.546875 508.648438 385.265625 C 508.648438 327.316406 469.59375 283.925781 398.632812 283.925781 C 318.429688 283.925781 268.460938 343.695312 268.460938 410.597656 C 268.460938 433.554688 275.320312 449.929688 285.957031 462.386719 C 290.855469 468.265625 291.554688 470.503906 289.734375 477.085938 C 288.617188 481.984375 285.535156 493.742188 284.417969 498.21875 C 282.597656 504.9375 277.277344 507.316406 271.257812 504.9375 C 234.308594 489.960938 217.089844 449.511719 217.089844 404.019531 C 217.089844 328.855469 280.359375 238.71875 406.191406 238.71875 C 507.105469 238.71875 573.734375 311.921875 573.734375 390.164062 C 573.734375 494.019531 516.066406 571.421875 430.964844 571.421875 C 402.410156 571.421875 375.535156 555.886719 366.296875 538.390625 C 366.296875 538.390625 350.902344 599.417969 347.683594 611.035156 C 342.082031 631.328125 331.027344 651.90625 321.089844 667.722656 C 344.882812 674.71875 370.078125 678.5 396.113281 678.5 C 542.238281 678.5 660.511719 560.085938 660.511719 414.097656 C 660.375 268.53125 541.820312 149.976562 395.832031 149.976562 Z M 395.832031 149.976562 " fill-opacity="1" fill-rule="nonzero"/></svg>