<svg xmlns="http://www.w3.org/2000/svg" xmlns:xlink="http://www.w3.org/1999/xlink" width="1080" zoomAndPan="magnify" viewBox="0 0 810 809.999993" height="1080" preserveAspectRatio="xMidYMid meet" version="1.0"><defs><clipPath id="6d1e1e2d9c"><path d="M 316 144 L 776.90625 144 L 776.90625 810 L 316 810 Z M 316 144 " clip-rule="nonzero"/></clipPath></defs><g clip-path="url(#6d1e1e2d9c)"><path fill="#000000" d="M 776.503906 806.84375 C 755.109375 772.742188 733.695312 738.636719 712.261719 704.535156 L 680.09375 653.5 L 647.808594 602.449219 L 583.136719 500.421875 L 522.460938 404.851562 L 600.578125 290.105469 L 621.148438 259.941406 C 628.03125 249.898438 634.859375 239.828125 641.789062 229.820312 L 683.335938 169.769531 L 700.140625 145.492188 L 478.5625 144.007812 L 473.894531 152.351562 C 467.066406 164.578125 460.390625 176.878906 453.652344 189.152344 L 448.613281 198.375 L 443.644531 207.640625 L 433.652344 226.117188 L 413.902344 263.199219 L 403.835938 282.328125 C 400 276.496094 396.15625 270.675781 392.308594 264.863281 L 380.53125 247.238281 L 368.636719 229.671875 L 356.738281 212.148438 L 344.679688 194.699219 C 336.597656 183.066406 328.398438 171.519531 320.082031 160.054688 C 319.964844 159.859375 319.816406 159.691406 319.636719 159.554688 C 319.453125 159.417969 319.25 159.320312 319.03125 159.261719 C 318.808594 159.203125 318.585938 159.191406 318.359375 159.222656 C 318.132812 159.253906 317.921875 159.324219 317.726562 159.441406 C 317.527344 159.554688 317.359375 159.703125 317.222656 159.886719 C 317.085938 160.070312 316.988281 160.269531 316.929688 160.492188 C 316.871094 160.710938 316.859375 160.933594 316.886719 161.160156 C 316.917969 161.386719 316.992188 161.597656 317.105469 161.796875 C 323.144531 174.589844 329.351562 187.308594 335.726562 199.949219 L 345.257812 218.902344 L 354.925781 237.792969 L 364.664062 256.625 L 374.496094 275.394531 C 381.113281 287.875 387.714844 300.371094 394.421875 312.804688 L 404.101562 330.746094 L 415.628906 312.65625 C 423.152344 300.832031 430.5 288.945312 437.933594 277.078125 L 460.035156 241.375 L 470.992188 223.453125 L 476.464844 214.527344 L 481.894531 205.601562 C 487.382812 196.515625 492.882812 187.441406 498.328125 178.335938 C 502.667969 178.335938 635.140625 177.832031 640.40625 177.726562 L 617.636719 213.886719 C 611.167969 224.195312 604.582031 234.414062 598.050781 244.695312 L 578.390625 275.457031 L 499.664062 398.453125 L 495.558594 404.851562 L 499.664062 410.800781 L 567.921875 510.460938 L 636.328125 610.019531 L 670.535156 659.777344 L 704.855469 709.472656 C 727.71875 742.652344 750.660156 775.753906 773.679688 808.777344 C 773.804688 808.960938 773.960938 809.113281 774.148438 809.238281 C 774.332031 809.359375 774.535156 809.441406 774.753906 809.484375 C 774.972656 809.527344 775.191406 809.527344 775.410156 809.484375 C 775.628906 809.441406 775.832031 809.359375 776.015625 809.234375 C 776.203125 809.113281 776.359375 808.957031 776.484375 808.773438 C 776.609375 808.589844 776.695312 808.386719 776.738281 808.167969 C 776.785156 807.949219 776.789062 807.730469 776.746094 807.511719 C 776.707031 807.292969 776.625 807.089844 776.503906 806.902344 Z M 776.503906 806.84375 " fill-opacity="1" fill-rule="nonzero"/></g><path fill="#000000" d="M 474.234375 609.320312 L 464.703125 590.355469 L 455.050781 571.480469 L 445.296875 552.648438 L 435.464844 533.875 C 428.847656 521.378906 422.261719 508.886719 415.539062 496.464844 L 405.859375 478.511719 L 394.332031 496.613281 C 386.808594 508.425781 379.460938 520.324219 372.027344 532.195312 L 349.914062 567.894531 L 338.96875 585.820312 L 333.480469 594.742188 L 328.066406 603.667969 C 322.585938 612.761719 317.132812 621.851562 311.710938 630.933594 C 307.367188 630.933594 174.894531 631.453125 169.617188 631.558594 L 192.324219 595.398438 C 198.808594 585.089844 205.394531 574.855469 211.925781 564.59375 L 231.582031 533.816406 L 310.3125 410.816406 L 314.402344 404.421875 L 310.3125 398.46875 L 242.054688 299.015625 L 173.644531 199.667969 L 139.441406 150.015625 L 105.089844 100.421875 C 82.25 67.339844 59.3125 34.320312 36.28125 1.355469 C 36.160156 1.175781 36.003906 1.027344 35.824219 0.90625 C 35.644531 0.785156 35.445312 0.703125 35.230469 0.660156 C 35.019531 0.617188 34.804688 0.613281 34.589844 0.652344 C 34.375 0.6875 34.175781 0.765625 33.992188 0.878906 C 33.804688 1 33.644531 1.152344 33.515625 1.335938 C 33.386719 1.519531 33.296875 1.71875 33.246094 1.9375 C 33.195312 2.15625 33.191406 2.378906 33.226562 2.597656 C 33.261719 2.820312 33.339844 3.023438 33.457031 3.214844 C 54.871094 37.269531 76.285156 71.304688 97.699219 105.316406 L 129.867188 156.324219 L 162.152344 207.253906 L 226.808594 309.085938 L 287.5 404.433594 L 209.425781 519.179688 L 188.859375 549.34375 C 181.972656 559.371094 175.164062 569.457031 168.21875 579.46875 L 126.667969 639.515625 L 109.878906 663.792969 L 331.457031 665.28125 L 336.140625 656.859375 C 342.96875 644.632812 349.660156 632.332031 356.382812 620.058594 L 361.421875 610.835938 L 366.417969 601.601562 L 376.414062 583.125 L 396.058594 546.085938 L 406.125 526.972656 L 417.652344 544.40625 L 429.429688 562.035156 L 441.324219 579.617188 L 453.222656 597.136719 L 465.28125 614.585938 C 473.351562 626.207031 481.550781 637.75 489.878906 649.214844 C 490.003906 649.382812 490.15625 649.527344 490.332031 649.636719 C 490.511719 649.75 490.703125 649.828125 490.910156 649.871094 C 491.113281 649.914062 491.320312 649.914062 491.527344 649.878906 C 491.734375 649.84375 491.929688 649.773438 492.109375 649.667969 C 492.292969 649.558594 492.445312 649.421875 492.578125 649.257812 C 492.707031 649.089844 492.804688 648.90625 492.863281 648.707031 C 492.925781 648.503906 492.949219 648.300781 492.933594 648.089844 C 492.921875 647.878906 492.867188 647.679688 492.78125 647.488281 C 486.792969 634.726562 480.609375 622.003906 474.234375 609.320312 Z M 474.234375 609.320312 " fill-opacity="1" fill-rule="nonzero"/></svg>